<mxfile host="app.diagrams.net" agent="Mozilla/5.0 (Windows NT 10.0; Win64; x64; rv:133.0) Gecko/20100101 Firefox/133.0" version="25.0.3">
  <diagram name="Page-1" id="-Jm6oO3f2mt5xvTRA_CD">
    <mxGraphModel dx="1185" dy="637" grid="1" gridSize="10" guides="1" tooltips="1" connect="1" arrows="1" fold="1" page="1" pageScale="1" pageWidth="850" pageHeight="1100" math="0" shadow="0">
      <root>
        <mxCell id="0" />
        <mxCell id="1" parent="0" />
        <mxCell id="MOZX0QpnfEdkVAgUkA0B-7" value="" style="rounded=0;whiteSpace=wrap;html=1;align=center;" vertex="1" parent="1">
          <mxGeometry x="526.25" y="280" width="142.5" height="177.5" as="geometry" />
        </mxCell>
        <mxCell id="MOZX0QpnfEdkVAgUkA0B-20" style="edgeStyle=orthogonalEdgeStyle;rounded=0;orthogonalLoop=1;jettySize=auto;html=1;exitX=1;exitY=0.5;exitDx=0;exitDy=0;exitPerimeter=0;" edge="1" parent="1" source="MOZX0QpnfEdkVAgUkA0B-1" target="MOZX0QpnfEdkVAgUkA0B-15">
          <mxGeometry relative="1" as="geometry">
            <Array as="points">
              <mxPoint x="490" y="360" />
              <mxPoint x="490" y="380" />
            </Array>
          </mxGeometry>
        </mxCell>
        <mxCell id="MOZX0QpnfEdkVAgUkA0B-21" value="Message" style="edgeLabel;html=1;align=center;verticalAlign=middle;resizable=0;points=[];" vertex="1" connectable="0" parent="MOZX0QpnfEdkVAgUkA0B-20">
          <mxGeometry x="-0.1733" y="-1" relative="1" as="geometry">
            <mxPoint y="-7" as="offset" />
          </mxGeometry>
        </mxCell>
        <mxCell id="MOZX0QpnfEdkVAgUkA0B-1" value="Redis" style="shape=cylinder3;whiteSpace=wrap;html=1;boundedLbl=1;backgroundOutline=1;size=15;" vertex="1" parent="1">
          <mxGeometry x="380" y="272.5" width="80" height="175" as="geometry" />
        </mxCell>
        <mxCell id="MOZX0QpnfEdkVAgUkA0B-13" style="edgeStyle=orthogonalEdgeStyle;rounded=0;orthogonalLoop=1;jettySize=auto;html=1;exitX=1;exitY=0.5;exitDx=0;exitDy=0;" edge="1" parent="1" source="MOZX0QpnfEdkVAgUkA0B-5" target="MOZX0QpnfEdkVAgUkA0B-12">
          <mxGeometry relative="1" as="geometry" />
        </mxCell>
        <mxCell id="MOZX0QpnfEdkVAgUkA0B-14" value="Add task" style="edgeLabel;html=1;align=center;verticalAlign=middle;resizable=0;points=[];" vertex="1" connectable="0" parent="MOZX0QpnfEdkVAgUkA0B-13">
          <mxGeometry x="0.0092" y="1" relative="1" as="geometry">
            <mxPoint y="1" as="offset" />
          </mxGeometry>
        </mxCell>
        <mxCell id="MOZX0QpnfEdkVAgUkA0B-5" value="Application" style="rounded=1;whiteSpace=wrap;html=1;" vertex="1" parent="1">
          <mxGeometry x="230" y="330" width="70" height="90" as="geometry" />
        </mxCell>
        <mxCell id="MOZX0QpnfEdkVAgUkA0B-9" value="Celery worker" style="rounded=1;whiteSpace=wrap;html=1;" vertex="1" parent="1">
          <mxGeometry x="550" y="300" width="95" height="40" as="geometry" />
        </mxCell>
        <mxCell id="MOZX0QpnfEdkVAgUkA0B-12" value="Task" style="rounded=1;whiteSpace=wrap;html=1;" vertex="1" parent="1">
          <mxGeometry x="395" y="320" width="50" height="30" as="geometry" />
        </mxCell>
        <mxCell id="MOZX0QpnfEdkVAgUkA0B-23" style="edgeStyle=orthogonalEdgeStyle;rounded=0;orthogonalLoop=1;jettySize=auto;html=1;exitX=0.5;exitY=1;exitDx=0;exitDy=0;" edge="1" parent="1" source="MOZX0QpnfEdkVAgUkA0B-15" target="MOZX0QpnfEdkVAgUkA0B-22">
          <mxGeometry relative="1" as="geometry" />
        </mxCell>
        <mxCell id="MOZX0QpnfEdkVAgUkA0B-24" value="&lt;font style=&quot;font-size: 9px;&quot;&gt;Process and store&lt;/font&gt;" style="edgeLabel;html=1;align=center;verticalAlign=middle;resizable=0;points=[];" vertex="1" connectable="0" parent="MOZX0QpnfEdkVAgUkA0B-23">
          <mxGeometry x="-0.1903" y="1" relative="1" as="geometry">
            <mxPoint x="5" y="-10" as="offset" />
          </mxGeometry>
        </mxCell>
        <mxCell id="MOZX0QpnfEdkVAgUkA0B-15" value="Celery worker" style="rounded=1;whiteSpace=wrap;html=1;" vertex="1" parent="1">
          <mxGeometry x="550" y="360" width="95" height="40" as="geometry" />
        </mxCell>
        <mxCell id="MOZX0QpnfEdkVAgUkA0B-22" value="Result" style="rounded=1;whiteSpace=wrap;html=1;" vertex="1" parent="1">
          <mxGeometry x="395" y="390" width="50" height="30" as="geometry" />
        </mxCell>
      </root>
    </mxGraphModel>
  </diagram>
</mxfile>
